<?xml version="1.0" encoding="UTF-8"?>
<svg width="30px" height="30px" viewBox="0 0 30 30" version="1.1" xmlns="http://www.w3.org/2000/svg" xmlns:xlink="http://www.w3.org/1999/xlink">
    <!-- Generator: Sketch 50.2 (55047) - http://www.bohemiancoding.com/sketch -->
    <title>apple [#1296]</title>
    <desc>Created with Sketch.</desc>
    <defs></defs>
    <g id="Page-1" stroke="none" stroke-width="1" fill="none" fill-rule="evenodd">
        <g id="Desktop" transform="translate(-843.000000, -1121.000000)" fill="#D02323">
            <g id="Services" transform="translate(86.000000, 1011.000000)">
                <g id="Icon-5" transform="translate(693.000000, 77.000000)">
                    <path d="M79,44.3378401 C79.717,44.3378401 80.4325,44.0792631 81.0025,43.5605881 C82.1095,42.5536589 83.5285,42 85,42 C88.231,42 91,46.1813419 91,49.6052053 C91,53.8793307 87.4675,60 85,60 C84.4015,60 83.767,59.7688018 83.1115,59.3155315 C81.904,58.48048 80.482,58.0393781 79,58.0393781 C77.518,58.0393781 76.096,58.48048 74.8885,59.3155315 C74.233,59.7688018 73.5985,60 73,60 C70.5325,60 67,53.8793307 67,49.6052053 C67,46.1813419 69.769,42 73,42 C74.4715,42 75.8905,42.5536589 76.9975,43.5605881 C77.5675,44.0792631 78.283,44.3378401 79,44.3378401 M85,39 C83.0785,39 81.301,39.6138689 79.8415,40.6536567 C79.588,40.8325123 79.294,40.9219401 79,40.9219401 C78.706,40.9219401 78.412,40.8325123 78.1585,40.6536567 C76.699,39.6138689 74.9215,39 73,39 C68.029,39 64,44.5884805 64,49.6100796 C64,54.6331944 68.029,63 73,63 C76.0465,63 76.4605,61.0462296 79,61.0462296 C81.5185,61.0462296 81.985,63 85,63 C89.971,63 94,54.6331944 94,49.6100796 C94,44.5884805 89.971,39 85,39 M74.6964952,33 C74.2289851,33 73.7320045,33.0750268 73.2202886,33.2197213 C72.8036823,34.6840836 72.9657703,36.0372454 73.8110392,36.8826367 C74.5236906,37.5953912 75.7721701,38 77.1626442,38 C77.4238604,38 77.6890953,37.9866024 77.9570094,37.9571275 C78.1405305,36.2596463 77.7279428,34.6572883 76.882674,33.8105573 C76.3321105,33.2599143 75.5672159,33 74.6964952,33" id="apple-[#1296]"></path>
                </g>
            </g>
        </g>
    </g>
</svg>