<?xml version="1.0" encoding="UTF-8"?>
<svg width="29px" height="29px" viewBox="0 0 29 29" version="1.1" xmlns="http://www.w3.org/2000/svg" xmlns:xlink="http://www.w3.org/1999/xlink">
    <!-- Generator: Sketch 50.2 (55047) - http://www.bohemiancoding.com/sketch -->
    <title>atom [#1298]</title>
    <desc>Created with Sketch.</desc>
    <defs></defs>
    <g id="Page-1" stroke="none" stroke-width="1" fill="none" fill-rule="evenodd">
        <g id="Desktop" transform="translate(-322.000000, -1123.000000)" fill="#D02323">
            <g id="Services" transform="translate(86.000000, 1011.000000)">
                <g id="Icon-2" transform="translate(173.000000, 77.000000)">
                    <path d="M87.6908704,53 C85.63591,55.6313979 83.4872803,57.7376672 81,59.6727301 C83.0607247,60.8611034 87.8955018,63.01485 89.4619407,61.4509739 C90.5312119,60.3834521 90.0398083,57.0442097 87.6908704,53 M77.5007134,57 C80.334348,54.9270496 82.9282793,52.333365 85,49.5 C82.9368401,46.6766216 80.3443356,44.0800837 77.5007134,42 C74.6471036,44.0857904 72.0588795,46.6851817 70,49.5 C72.0717207,52.3347917 74.6670789,54.9270496 77.5007134,57 M75,59.6740746 C72.5069555,57.7328658 70.3583258,55.6261721 68.3091296,53 C65.9601917,57.0450245 65.4687881,60.3849399 66.5380593,61.4526767 C68.0900876,63.001039 72.8830737,60.8972233 75,59.6740746 M68.3091296,47 C70.362649,44.3687795 72.5112787,42.2640908 75,40.3277196 C72.9421575,39.1394265 68.1059393,36.9843863 66.5380593,38.5495957 C65.4687881,39.6170455 65.9601917,42.9560629 68.3091296,47 M81,40.3127815 C83.4784507,42.2563715 85.61307,44.3672141 87.6517032,47 C92.8349601,38.0015242 88.9152832,35.7075689 81,40.3127815 M88.6130849,49.508942 C96.4925958,61.8207534 89.7201237,68.4439581 77.5021788,60.6271876 C65.313176,68.4251504 58.4842666,61.8612623 66.3912726,49.508942 C58.5653048,37.2824887 65.1641238,30.4972484 77.5021788,38.3906964 C89.7157823,30.5768194 96.4998313,37.1870034 88.6130849,49.508942 M78.4150487,47.586 C79.1949838,48.3673333 79.1949838,49.634 78.4150487,50.414 C77.6337805,51.1953333 76.3672194,51.1953333 75.5859512,50.414 C74.8046829,49.634 74.8046829,48.3673333 75.5859512,47.586 C76.3672194,46.8046667 77.6337805,46.8046667 78.4150487,47.586" id="atom-[#1298]"></path>
                </g>
            </g>
        </g>
    </g>
</svg>