<?xml version="1.0" encoding="UTF-8"?>
<svg width="32px" height="32px" viewBox="0 0 32 32" version="1.1" xmlns="http://www.w3.org/2000/svg" xmlns:xlink="http://www.w3.org/1999/xlink">
    <!-- Generator: Sketch 50.2 (55047) - http://www.bohemiancoding.com/sketch -->
    <title>chart [#1293]</title>
    <desc>Created with Sketch.</desc>
    <defs></defs>
    <g id="Page-1" stroke="none" stroke-width="1" fill="none" fill-rule="evenodd">
        <g id="Desktop" transform="translate(-669.000000, -1120.000000)" fill="#D02323">
            <g id="Services" transform="translate(86.000000, 1011.000000)">
                <g id="Icon-4" transform="translate(520.000000, 77.000000)">
                    <path d="M84.3334061,35.8609588 C87.3591632,36.935127 89.7627024,39.6418886 90.8346951,42.6705449 L84.3334061,42.6705449 L84.3334061,35.8609588 Z M84.3334061,46.2273933 L95,46.2273933 C95,38.3685369 88.6320434,32 80.7778747,32 L80.7778747,42.6705449 C80.7778747,44.6339252 82.368975,46.2273933 84.3334061,46.2273933 L84.3334061,46.2273933 Z M75.0463583,60.2413756 C70.9006087,59.4357495 67.5744092,56.1083179 66.7673036,51.9592543 C65.4179795,45.0038374 70.7743874,40.4386226 73.6668121,39.4160287 L73.6668121,46.2273933 C73.6668121,50.1488185 76.8561237,53.3410899 80.7778747,53.3410899 L87.2791637,53.3410899 C85.7609519,57.0242063 81.2063163,61.4382551 75.0463583,60.2413756 L75.0463583,60.2413756 Z M77.2223434,46.2273933 L77.2223434,35.5568483 C68.4348478,35.5568483 61.5086728,43.5295238 63.2775496,52.6386124 C64.3548756,58.1855173 68.8241785,62.6546972 74.3690295,63.7324222 C83.8871869,65.5837618 91.4444687,57.4937103 91.4444687,49.7842416 L80.7778747,49.7842416 C78.8134437,49.7842416 77.2223434,48.1907735 77.2223434,46.2273933 L77.2223434,46.2273933 Z" id="chart-[#1293]"></path>
                </g>
            </g>
        </g>
    </g>
</svg>