<?xml version="1.0" encoding="UTF-8"?>
<svg width="47px" height="35px" viewBox="0 0 47 35" version="1.1" xmlns="http://www.w3.org/2000/svg" xmlns:xlink="http://www.w3.org/1999/xlink">
    <!-- Generator: Sketch 50.2 (55047) - http://www.bohemiancoding.com/sketch -->
    <title>planet [#1301]</title>
    <desc>Created with Sketch.</desc>
    <defs></defs>
    <g id="Page-1" stroke="none" stroke-width="1" fill="none" fill-rule="evenodd">
        <g id="Desktop" transform="translate(-489.000000, -1116.000000)" fill="#D02323">
            <g id="Services" transform="translate(86.000000, 1011.000000)">
                <g id="Icon-3" transform="translate(347.000000, 77.000000)">
                    <path d="M61.9586503,39.9736842 C63.2237176,39.9736842 64.2504389,38.9421053 64.2504389,37.6710526 C64.2504389,36.4 63.2237176,35.3684211 61.9586503,35.3684211 C60.693583,35.3684211 59.6668617,36.4 59.6668617,37.6710526 C59.6668617,38.9421053 60.693583,39.9736842 61.9586503,39.9736842 Z M62.417008,30.3026316 C62.417008,29.0315789 61.3902867,28 60.1252194,28 C58.8601521,28 57.8334309,29.0315789 57.8334309,30.3026316 C57.8334309,31.5736842 58.8601521,32.6052632 60.1252194,32.6052632 C61.3902867,32.6052632 62.417008,31.5736842 62.417008,30.3026316 Z M68.834016,33.0657895 C68.834016,31.7947368 67.8072947,30.7631579 66.5422274,30.7631579 C65.2771601,30.7631579 64.2504389,31.7947368 64.2504389,33.0657895 C64.2504389,34.3368421 65.2771601,35.3684211 66.5422274,35.3684211 C67.8072947,35.3684211 68.834016,34.3368421 68.834016,33.0657895 Z M89.918767,47.2251316 C90.3945424,46.9515789 90.8070643,46.6890789 91.2498379,46.4210526 C90.8235652,46.6503947 89.899516,47.1753947 89.918767,47.2251316 Z M96.3354788,42.7863375 C93.5853326,42.5827013 90.7735136,43.0373309 88.08504,43.6032501 C88.9850048,44.7232491 89.654268,45.9711128 90.1088187,47.3421053 C91.5158703,46.5109855 91.5478488,46.4683639 91.2143593,46.6530572 C93.5282282,45.2015574 95.2733376,43.84714 96.3354788,42.7863375 Z M77.0505371,44.0811796 C73.2412652,45.4976587 71.4043186,50.1165103 73.1852465,53.7894737 C77.6550722,52.6671139 82.1739143,51.0365158 86.2516091,49.1141512 C85.3109617,45.0694208 80.9555075,42.6270531 77.0505371,44.0811796 Z M79.8346011,51.9998684 C79.8731032,51.9860526 79.9363565,51.9639474 79.9803589,51.9473684 C79.9308563,51.9667105 79.8813536,51.9832895 79.8346011,51.9998684 Z M77.0844548,58.1355446 C78.4455122,58.518479 79.9064841,58.4780582 81.2408976,58.0078998 C81.3297104,57.978116 81.3674559,57.9632241 81.4274046,57.9440774 C81.3630153,57.9653515 81.2986259,57.9887531 81.2408976,58.0078998 C82.5531078,57.5462511 83.6432859,56.7144324 84.4181783,55.6315789 C82.0180102,56.5867876 79.5734358,57.4228611 77.0844548,58.1355446 Z M67.2710162,51.9473684 C64.7065048,53.5880316 62.6393115,55.3304605 61.5002926,56.5169008 C63.652282,56.685683 65.8134387,56.2215317 67.9173006,55.8566641 C67.4795689,54.565976 67.3076848,53.250467 67.2710162,51.9473684 Z M90.982774,52.5604172 C89.9294667,62.1878306 78.0418087,66.5050352 71.2104925,59.6556696 C68.4429336,60.2089148 55.1890124,62.7127043 56.0391318,56.7452211 C56.3590943,54.5085971 58.6268577,52.5367742 60.2219992,51.1962183 C62.9802161,48.8744796 66.1354668,47.0208716 69.3397628,45.4155145 C72.1003152,40.5450647 77.9343761,38.2824334 83.1985767,40.1123985 C87.0054298,39.0626511 90.9570835,38.2327832 94.9134082,38.1453042 C97.1461393,38.0932897 101.62795,38.0530967 102.604186,40.7460299 C103.678512,43.7084928 98.8253585,48.3968918 90.982774,52.5604172 Z M103,41.5772368 C102.953248,41.4418421 102.854242,41.1765789 102.752487,40.8947368 C102.881744,41.2511842 102.961498,41.4694737 103,41.5772368 Z M102.777238,40.9665789 C102.834991,41.1240789 102.878994,41.2428947 102.922996,41.3644737 C102.862493,41.2014474 102.80474,41.0384211 102.752487,40.8947368 C102.760737,40.9223684 102.766238,40.9361842 102.777238,40.9665789 Z" id="planet-[#1301]"></path>
                </g>
            </g>
        </g>
    </g>
</svg>